<svg width="28" height="25" viewBox="0 0 28 25" fill="none" xmlns="http://www.w3.org/2000/svg">
<path d="M0.666626 1.3855C0.666626 0.781442 1.11435 0.291748 1.66663 0.291748H26.3333C26.8856 0.291748 27.3333 0.781442 27.3333 1.3855C27.3333 1.98955 26.8856 2.47925 26.3333 2.47925H1.66663C1.11435 2.47925 0.666626 1.98955 0.666626 1.3855ZM5.0404 22.4871L4.08084 21.4376H23.919L22.9596 22.4871C22.569 22.9143 22.569 23.6067 22.9596 24.0339C23.3501 24.461 23.9832 24.461 24.3737 24.0339L27.0404 21.1172C27.4309 20.69 27.4309 19.9976 27.0404 19.5705L24.3737 16.6538C23.9832 16.2267 23.3501 16.2267 22.9596 16.6538C22.569 17.081 22.569 17.7734 22.9596 18.2005L23.919 19.2501H4.08084L5.0404 18.2005C5.43092 17.7734 5.43092 17.081 5.0404 16.6538C4.64988 16.2267 4.01671 16.2267 3.62619 16.6538L0.959519 19.5705C0.568999 19.9976 0.568999 20.69 0.959519 21.1172L3.62619 24.0339C4.01671 24.461 4.64988 24.461 5.0404 24.0339C5.43092 23.6067 5.43092 22.9143 5.0404 22.4871ZM1.66663 9.77092C1.11435 9.77092 0.666626 10.2606 0.666626 10.8647C0.666626 11.4687 1.11435 11.9584 1.66663 11.9584H26.3333C26.8856 11.9584 27.3333 11.4687 27.3333 10.8647C27.3333 10.2606 26.8856 9.77092 26.3333 9.77092H1.66663Z" fill="#420505"/>
</svg>
