<svg width="34" height="36" viewBox="0 0 34 36" fill="none" xmlns="http://www.w3.org/2000/svg">
<g style="mix-blend-mode:multiply">
<path d="M9.7561 0C7.81637 0 6.2439 1.74158 6.2439 3.88993V16.2267C6.98613 15.8678 7.80446 15.7767 8.58537 15.953V3.88993C8.58537 3.17382 9.10953 2.59329 9.7561 2.59329H23.0244C23.6709 2.59329 24.1951 3.17382 24.1951 3.88993V25.9329H17.1707V28.5261H26.9268C29.7286 28.5261 32 26.0105 32 22.9074V17.2886H26.5366V3.88993C26.5366 1.74158 24.9641 0 23.0244 0H9.7561ZM26.9268 25.9329H26.5366V19.8819H29.6585V22.9074C29.6585 24.5783 28.4355 25.9329 26.9268 25.9329ZM15.0135 19.3476C15.2815 19.496 15.5295 19.6758 15.7546 19.8819H20.6829C21.3295 19.8819 21.8537 19.3013 21.8537 18.5852C21.8537 17.8691 21.3295 17.2886 20.6829 17.2886H12.0976C11.903 17.2886 11.7196 17.3411 11.5581 17.4341L15.0135 19.3476ZM12.0976 5.18657C11.451 5.18657 10.9268 5.76711 10.9268 6.48322C10.9268 7.19934 11.451 7.77986 12.0976 7.77986H20.6829C21.3295 7.77986 21.8537 7.19934 21.8537 6.48322C21.8537 5.76711 21.3295 5.18657 20.6829 5.18657H12.0976ZM12.0976 11.2376C11.451 11.2376 10.9268 11.8181 10.9268 12.5342C10.9268 13.2503 11.451 13.8309 12.0976 13.8309H20.6829C21.3295 13.8309 21.8537 13.2503 21.8537 12.5342C21.8537 11.8181 21.3295 11.2376 20.6829 11.2376H12.0976ZM0 30.3812V23.2135C0 22.2312 0.501073 21.3332 1.29433 20.8941L6.75774 17.8686C7.41693 17.5035 8.19283 17.5035 8.85201 17.8686L14.3154 20.8941C15.1087 21.3332 15.6098 22.2312 15.6098 23.2135V30.3812C15.6098 31.3634 15.1087 32.2613 14.3154 32.7006L8.85201 35.7261C8.19283 36.0913 7.41693 36.0913 6.75774 35.7261L1.29433 32.7006C0.501073 32.2613 0 31.3634 0 30.3812ZM2.42387 23.3852C2.23109 23.8122 2.38736 24.3316 2.7729 24.5451L7.02439 26.8995V31.9839C7.02439 32.4614 7.37383 32.8483 7.80488 32.8483C8.23593 32.8483 8.58537 32.4614 8.58537 31.9839V26.8995L12.8369 24.5451C13.2224 24.3316 13.3787 23.8122 13.1859 23.3852C12.9931 22.9582 12.5243 22.7851 12.1388 22.9986L7.80488 25.3986L3.471 22.9986C3.08546 22.7851 2.61663 22.9582 2.42387 23.3852Z" fill="#420505"/>
</g>
</svg>
