<svg width="43" height="40" viewBox="0 0 43 40" fill="none" xmlns="http://www.w3.org/2000/svg">
<path d="M29.7508 16.7515C29.7508 17.7872 28.9114 18.6269 27.8758 18.6269C26.8403 18.6269 26.0009 17.7872 26.0009 16.7515C26.0009 15.7157 26.8403 14.876 27.8758 14.876C28.9114 14.876 29.7508 15.7157 29.7508 16.7515ZM19.2625 11.3475C20.1692 10.4826 21.3741 10 22.627 10H30.8751C33.1533 10 35 11.8472 35 14.1259V21.5564C35 22.8633 34.4756 24.1155 33.5443 25.032L23.1265 35.2857C21.8078 36.5836 19.6901 36.5776 18.3788 35.2722L8.99419 25.93C7.64866 24.5905 7.67191 22.405 9.04563 21.0944L19.2625 11.3475ZM22.627 12.2505C21.9524 12.2505 21.3036 12.5103 20.8154 12.9761L10.5985 22.7229C10.1406 23.1598 10.1328 23.8883 10.5813 24.3348L19.966 33.677C20.4031 34.1121 21.1089 34.1142 21.5486 33.6815L31.9663 23.4279C32.4678 22.9343 32.7501 22.2602 32.7501 21.5564V14.1259C32.7501 13.0901 31.9107 12.2505 30.8751 12.2505H22.627ZM34.597 26.1015L32.3844 28.279C32.3247 28.3605 32.2576 28.4381 32.1832 28.5111L24.1834 36.3554C23.869 36.6637 23.5233 36.9209 23.1565 37.1269C21.3002 38.1764 18.9042 37.9112 17.3213 36.3355L14.4243 33.4517L10.8075 29.8719C10.7495 29.8145 10.696 29.7541 10.647 29.6914L8.20388 27.2593C7.73708 28.6951 8.07775 30.3361 9.22502 31.4716L15.7594 37.9392C18.5263 40.6778 22.9786 40.6882 25.7585 37.9626L33.7582 30.1183C34.918 28.9812 35.2598 27.3352 34.7948 25.8977C34.7306 25.9669 34.6646 26.0348 34.597 26.1015Z" fill="#420505"/>
</svg>
