<svg width="16" height="18" viewBox="0 0 16 18" fill="none" xmlns="http://www.w3.org/2000/svg">
<path d="M12.595 9.04968L7.44426 14.1626C7.14393 14.4608 6.93083 14.8343 6.8278 15.2433L6.42849 16.8291C6.25476 17.5188 6.88412 18.1434 7.57886 17.971L9.17644 17.5746C9.58844 17.4723 9.96472 17.2609 10.2651 16.9627L15.4158 11.8498C16.1947 11.0765 16.1947 9.82286 15.4158 9.04968C14.6369 8.27641 13.3739 8.27641 12.595 9.04968ZM3.19963 0.529357C3.19963 0.237004 2.96088 0 2.66636 0C2.37184 0 2.13309 0.237004 2.13309 0.529357V1.05871H1.59982C0.716259 1.05871 0 1.76972 0 2.64679V15.3514C0 16.2284 0.716259 16.9394 1.59982 16.9394H5.33577C5.34355 16.8186 5.36253 16.696 5.39368 16.5723L5.79307 14.9865C5.94296 14.3913 6.25297 13.8478 6.69 13.414L11.8408 8.30101C12.1248 8.01913 12.4506 7.8042 12.7985 7.65623V2.64679C12.7985 1.76972 12.0822 1.05871 11.1987 1.05871H10.6654V0.529357C10.6654 0.237004 10.4266 0 10.1322 0C9.8377 0 9.5989 0.237004 9.5989 0.529357V1.05871H6.93254V0.529357C6.93254 0.237004 6.69374 0 6.39926 0C6.10475 0 5.86599 0.237004 5.86599 0.529357V1.05871H3.19963V0.529357ZM3.7329 5.29357H9.06562C9.3601 5.29357 9.5989 5.53058 9.5989 5.82293C9.5989 6.11528 9.3601 6.35229 9.06562 6.35229H3.7329C3.43839 6.35229 3.19963 6.11528 3.19963 5.82293C3.19963 5.53058 3.43839 5.29357 3.7329 5.29357ZM9.5989 8.99907C9.5989 9.29138 9.3601 9.52843 9.06562 9.52843H3.7329C3.43839 9.52843 3.19963 9.29138 3.19963 8.99907C3.19963 8.70676 3.43839 8.46972 3.7329 8.46972H9.06562C9.3601 8.46972 9.5989 8.70676 9.5989 8.99907ZM3.7329 11.6459H5.86599C6.16051 11.6459 6.39926 11.8829 6.39926 12.1752C6.39926 12.4675 6.16051 12.7046 5.86599 12.7046H3.7329C3.43839 12.7046 3.19963 12.4675 3.19963 12.1752C3.19963 11.8829 3.43839 11.6459 3.7329 11.6459Z" fill="#800F0F"/>
</svg>
