<svg width="35" height="38" viewBox="0 0 35 38" fill="none" xmlns="http://www.w3.org/2000/svg">
<path d="M7.29163 20.9598C7.29163 19.9974 7.29163 19.5162 7.49562 19.0999C7.69961 18.6835 8.07985 18.3886 8.84033 17.7989L16.2743 12.0338C16.8632 11.5771 17.1576 11.3487 17.5 11.3487C17.8423 11.3487 18.1367 11.5771 18.7256 12.0338L26.1596 17.7989C26.9201 18.3886 27.3003 18.6835 27.5043 19.0999C27.7083 19.5162 27.7083 19.9974 27.7083 20.9598V31.2499C27.7083 32.1927 27.7083 32.6641 27.4154 32.957C27.1225 33.2499 26.6511 33.2499 25.7083 33.2499H9.29162C8.34882 33.2499 7.87741 33.2499 7.58452 32.957C7.29163 32.6641 7.29163 32.1927 7.29163 31.2499V20.9598Z" fill="#420505" fill-opacity="0.24"/>
<path d="M4.375 19.9373C4.375 20.2164 4.375 20.356 4.46182 20.3963C4.54864 20.4366 4.65528 20.3466 4.86855 20.1665L16.2096 10.5896C16.8261 10.069 17.1343 9.80877 17.5 9.80877C17.8657 9.80877 18.1739 10.069 18.7904 10.5896L30.1314 20.1665C30.3447 20.3466 30.4514 20.4366 30.5382 20.3963C30.625 20.356 30.625 20.2164 30.625 19.9373V18.3454C30.625 17.8885 30.625 17.6601 30.532 17.4598C30.4389 17.2595 30.2644 17.1121 29.9154 16.8173L18.7904 7.42289C18.1739 6.90236 17.8657 6.6421 17.5 6.6421C17.1343 6.6421 16.8261 6.90236 16.2096 7.42289L5.08464 16.8173C4.73559 17.1121 4.56106 17.2595 4.46803 17.4598C4.375 17.6601 4.375 17.8885 4.375 18.3454V19.9373Z" fill="#420505"/>
<path d="M19.1458 23.75H15.8541C14.7496 23.75 13.8541 24.6454 13.8541 25.75V33.1C13.8541 33.1828 13.9213 33.25 14.0041 33.25H20.9958C21.0786 33.25 21.1458 33.1828 21.1458 33.1V25.75C21.1458 24.6454 20.2504 23.75 19.1458 23.75Z" fill="#420505"/>
<rect x="23.3334" y="7.91675" width="2.91667" height="6.33333" rx="0.5" fill="#420505"/>
</svg>
