<svg width="27" height="33" viewBox="0 0 27 33" fill="none" xmlns="http://www.w3.org/2000/svg">
<path d="M22.0826 16.0798L21.5461 16.7355L22.3795 16.8883C23.5921 17.1105 24.6422 18.4404 24.6422 20.1952V29.1586C24.6422 31.1024 23.3698 32.5 21.9995 32.5H3.14278C1.77238 32.5 0.5 31.1025 0.5 29.1586V6.10988C0.5 4.16593 1.77238 2.76845 3.14278 2.76845H10.4759C11.7233 2.76845 12.8825 3.91499 13.0879 5.59917L13.2297 6.76164L13.9712 5.85523L17.5819 1.44173C18.109 0.797473 18.7756 0.5 19.4172 0.5C20.0588 0.5 20.7254 0.797469 21.2525 1.44172C21.2525 1.44172 21.2525 1.44173 21.2525 1.44173L25.6925 6.86886L26.0795 6.55226L25.6925 6.86887C26.7692 8.18486 26.7692 10.3523 25.6925 11.6683L22.0826 16.0798ZM3.14278 30.939H3.14285L11.5222 30.9379L12.0221 30.9378L12.0221 30.4379L12.0235 18.9148L12.0236 18.4148L11.5236 18.4147L2.09525 18.4135L1.59519 18.4135V18.9135V29.1586C1.59519 30.0433 2.19891 30.939 3.14278 30.939ZM13.1173 30.4379V30.9378L13.6172 30.9379L21.9994 30.939H21.9995C22.9433 30.939 23.547 30.0433 23.547 29.1586V20.1952C23.547 19.3102 22.9433 18.4148 21.9995 18.4147C21.9995 18.4147 21.9995 18.4147 21.9995 18.4147L13.6174 18.4135L13.1173 18.4135V18.9135V30.4379ZM1.59519 16.3526V16.8526H2.09519H11.5235H12.0235V16.3526V6.10988C12.0235 5.22508 11.4198 4.3294 10.4759 4.3294H3.14278C2.19891 4.3294 1.59519 5.22508 1.59519 6.10988V16.3526ZM14.0057 12.7238L13.1187 11.6396V13.0404V16.3538V16.854L13.6189 16.8538L16.3287 16.8526L17.3832 16.8521L16.7155 16.036L14.0057 12.7238ZM18.2894 2.61937L18.2894 2.61939L13.8494 8.04652C13.8494 8.04652 13.8494 8.04652 13.8494 8.04653C13.2896 8.73076 13.2896 9.80636 13.8494 10.4906L18.2894 15.9176C18.5805 16.2735 18.9863 16.4761 19.4171 16.4761C19.848 16.4761 20.2538 16.2735 20.5449 15.9176L24.985 10.4906L24.598 10.174L24.985 10.4906C25.5448 9.80636 25.5448 8.73075 24.985 8.04652L20.5449 2.61938L20.1579 2.93599L20.5449 2.61937C20.2538 2.26352 19.848 2.06095 19.4171 2.06095C18.9863 2.06095 18.5805 2.26352 18.2894 2.61937Z" fill="#420505" stroke="#420505"/>
</svg>
