<svg width="133" height="48" viewBox="0 0 133 48" fill="none" xmlns="http://www.w3.org/2000/svg">
<g filter="url(#filter0_d_1_670)">
<path d="M6 32.3799L6.30326 32.5836L6.60652 32.7842L6.90977 32.9817L7.21303 33.176L7.51629 33.367L7.81955 33.5547L8.12281 33.739L8.42607 33.92L8.72932 34.0975L9.03258 34.2716L9.33584 34.4422L9.6391 34.6091L9.94236 34.7725L10.2456 34.9322L10.5489 35.0883L10.8521 35.2406L11.1554 35.3891L11.4586 35.5339L11.7619 35.6748L12.0652 35.8119L12.3684 35.9451L12.6717 36.0743L12.9749 36.1995L13.2782 36.3208L13.5815 36.438L13.8847 36.5512L14.188 36.6603L14.4912 36.7653L14.7945 36.8661L15.0977 36.9628L15.401 37.0553L15.7043 37.1436L16.0075 37.2277L16.3108 37.3075L16.614 37.3831L16.9173 37.4543L17.2206 37.5213L17.5238 37.5839L17.8271 37.6422L18.1303 37.6961L18.4336 37.7457L18.7368 37.7909L19.0401 37.8317L19.3434 37.8681L19.6466 37.9L19.9499 37.9276L20.2531 37.9508L20.5564 37.9695L20.8596 37.9838L21.1629 37.9936L21.4662 37.999L21.7694 38L22.0727 37.9965L22.3759 37.9886L22.6792 37.9763L22.9825 37.9595L23.2857 37.9383L23.589 37.9126L23.8922 37.8826L24.1955 37.8481L24.4987 37.8092L24.802 37.7659L25.1053 37.7183L25.4085 37.6662L25.7118 37.6099L26.015 37.5491L26.3183 37.4841L26.6216 37.4147L26.9248 37.341L27.2281 37.2631L27.5313 37.1809L27.8346 37.0944L28.1378 37.0037L28.4411 36.9089L28.7444 36.8098L29.0476 36.7067L29.3509 36.5994L29.6541 36.4879L29.9574 36.3725L30.2607 36.253L30.5639 36.1295L30.8672 36.002L31.1704 35.8705L31.4737 35.7351L31.7769 35.5959L32.0802 35.4528L32.3835 35.3059L32.6867 35.1552L32.99 35.0008L33.2932 34.8427L33.5965 34.6809L33.8997 34.5155L34.203 34.3465L34.5063 34.174L34.8095 33.9979L35.1128 33.8185L35.416 33.6356L35.7193 33.4493L36.0226 33.2598L36.3258 33.0669L36.6291 32.8708L36.9323 32.6716L37.2356 32.4692L37.5388 32.2638L37.8421 32.0553L38.1454 31.8439L38.4486 31.6295L38.7519 31.4123L39.0551 31.1922L39.3584 30.9694L39.6617 30.7439L39.9649 30.5157L40.2682 30.2849L40.5714 30.0516L40.8747 29.8158L41.1779 29.5776L41.4812 29.3371L41.7845 29.0942L42.0877 28.8491L42.391 28.6018L42.6942 28.3523L42.9975 28.1009L43.3008 27.8474L43.604 27.592L43.9073 27.3347L44.2105 27.0756L44.5138 26.8147L44.817 26.5522L45.1203 26.288L45.4236 26.0223L45.7268 25.7552L46.0301 25.4866L46.3333 25.2166L46.6366 24.9454L46.9398 24.6729L47.2431 24.3993L47.5464 24.1246L47.8496 23.8488L48.1529 23.5722L48.4561 23.2946L48.7594 23.0163L49.0627 22.7371L49.3659 22.4574L49.6692 22.177L49.9724 21.896L50.2757 21.6147L50.5789 21.3329L50.8822 21.0507L51.1855 20.7684L51.4887 20.4858L51.792 20.2031L52.0952 19.9203L52.3985 19.6376L52.7018 19.355L53.005 19.0725L53.3083 18.7903L53.6115 18.5083L53.9148 18.2268L54.218 17.9456L54.5213 17.665L54.8246 17.3849L55.1278 17.1055L55.4311 16.8268L55.7343 16.5489L56.0376 16.2718L56.3409 15.9957L56.6441 15.7205L56.9474 15.4464L57.2506 15.1735L57.5539 14.9017L57.8571 14.6311L58.1604 14.3619L58.4637 14.0941L58.7669 13.8278L59.0702 13.5629L59.3734 13.2997L59.6767 13.0381L59.9799 12.7782L60.2832 12.5201L60.5865 12.2639L60.8897 12.0096L61.193 11.7572L61.4962 11.5069L61.7995 11.2586L62.1028 11.0126L62.406 10.7687L62.7093 10.5271L63.0125 10.2879L63.3158 10.051L63.619 9.81662L63.9223 9.58474L64.2256 9.35542L64.5288 9.12874L64.8321 8.90474L65.1353 8.68347L65.4386 8.46499L65.7419 8.24937L66.0451 8.03664L66.3484 7.82686L66.6516 7.62009L66.9549 7.41637L67.2581 7.21575L67.5614 7.0183L67.8647 6.82404L68.1679 6.63303L68.4712 6.44533L68.7744 6.26096L69.0777 6.07999L69.381 5.90245L69.6842 5.72839L69.9875 5.55785L70.2907 5.39088L70.594 5.2275L70.8972 5.06778L71.2005 4.91174L71.5038 4.75942L71.807 4.61086L72.1103 4.4661L72.4135 4.32517L72.7168 4.18811L73.0201 4.05495L73.3233 3.92572L73.6266 3.80046L73.9298 3.6792L74.2331 3.56196L74.5363 3.44878L74.8396 3.33969L75.1429 3.2347L75.4461 3.13385L75.7494 3.03716L76.0526 2.94466L76.3559 2.85637L76.6591 2.7723L76.9624 2.69249L77.2657 2.61695L77.5689 2.54569L77.8722 2.47875L78.1754 2.41612L78.4787 2.35784L78.782 2.3039L79.0852 2.25434L79.3885 2.20915L79.6917 2.16835L79.995 2.13195L80.2982 2.09996L80.6015 2.07239L80.9048 2.04924L81.208 2.03052L81.5113 2.01623L81.8145 2.00638L82.1178 2.00097L82.4211 2L82.7243 2.00347L83.0276 2.01138L83.3308 2.02373L83.6341 2.04052L83.9373 2.06174L84.2406 2.08738L84.5439 2.11744L84.8471 2.15192L85.1504 2.1908L85.4536 2.23407L85.7569 2.28173L86.0602 2.33375L86.3634 2.39014L86.6667 2.45087L86.9699 2.51594L87.2732 2.58531L87.5764 2.65898L87.8797 2.73694L88.183 2.81915L88.4862 2.9056L88.7895 2.99626L89.0927 3.09113L89.396 3.19016L89.6992 3.29335L90.0025 3.40065L90.3058 3.51205L90.609 3.62752L90.9123 3.74703L91.2155 3.87055L91.5188 3.99804L91.8221 4.12949L92.1253 4.26485L92.4286 4.4041L92.7318 4.54719L93.0351 4.6941L93.3383 4.84478L93.6416 4.9992L93.9449 5.15732L94.2481 5.3191L94.5514 5.48451L94.8546 5.6535L95.1579 5.82603L95.4612 6.00206L95.7644 6.18153L96.0677 6.36442L96.3709 6.55068L96.6742 6.74025L96.9774 6.93309L97.2807 7.12916L97.584 7.3284L97.8872 7.53077L98.1905 7.73622L98.4937 7.94469L98.797 8.15614L99.1003 8.3705L99.4035 8.58774L99.7068 8.8078L100.01 9.03061L100.313 9.25613L100.617 9.48431L100.92 9.71507L101.223 9.94838L101.526 10.1842L101.83 10.4224L102.133 10.6629L102.436 10.9058L102.739 11.1509L103.043 11.3982L103.346 11.6477L103.649 11.8991L103.952 12.1526L104.256 12.408L104.559 12.6653L104.862 12.9244L105.165 13.1853L105.469 13.4478L105.772 13.712L106.075 13.9777L106.378 14.2448L106.682 14.5135L106.985 14.7834L107.288 15.0546L107.591 15.3271L107.895 15.6007L108.198 15.8754L108.501 16.1512L108.805 16.4278L109.108 16.7054L109.411 16.9837L109.714 17.2629L110.018 17.5426L110.321 17.823L110.624 18.104L110.927 18.3854L111.231 18.6671L111.534 18.9493L111.837 19.2316L112.14 19.5142L112.444 19.7969L112.747 20.0797L113.05 20.3624L113.353 20.645L113.657 20.9275L113.96 21.2097L114.263 21.4917L114.566 21.7733L114.87 22.0544L115.173 22.335L115.476 22.6151L115.779 22.8945L116.083 23.1732L116.386 23.4511L116.689 23.7282L116.992 24.0043L117.296 24.2795L117.599 24.5536L117.902 24.8265L118.206 25.0983L118.509 25.3689L118.812 25.6381L119.115 25.9059L119.419 26.1722L119.722 26.4371L120.025 26.7003L120.328 26.9619L120.632 27.2218L120.935 27.4799L121.238 27.7361L121.541 27.9904L121.845 28.2428L122.148 28.4931L122.451 28.7414L122.754 28.9874L123.058 29.2313L123.361 29.4729L123.664 29.7121L123.967 29.949L124.271 30.1834L124.574 30.4153L124.877 30.6446L125.18 30.8713L125.484 31.0953L125.787 31.3165L126.09 31.535L126.393 31.7506L126.697 31.9634L127 32.1731" stroke="#800F0F" stroke-width="3" stroke-miterlimit="10" stroke-linecap="round" stroke-linejoin="round" shape-rendering="crispEdges"/>
</g>
<defs>
<filter id="filter0_d_1_670" x="0.499878" y="0.5" width="132" height="47" filterUnits="userSpaceOnUse" color-interpolation-filters="sRGB">
<feFlood flood-opacity="0" result="BackgroundImageFix"/>
<feColorMatrix in="SourceAlpha" type="matrix" values="0 0 0 0 0 0 0 0 0 0 0 0 0 0 0 0 0 0 127 0" result="hardAlpha"/>
<feOffset dy="4"/>
<feGaussianBlur stdDeviation="2"/>
<feComposite in2="hardAlpha" operator="out"/>
<feColorMatrix type="matrix" values="0 0 0 0 0 0 0 0 0 0 0 0 0 0 0 0 0 0 0.25 0"/>
<feBlend mode="normal" in2="BackgroundImageFix" result="effect1_dropShadow_1_670"/>
<feBlend mode="normal" in="SourceGraphic" in2="effect1_dropShadow_1_670" result="shape"/>
</filter>
</defs>
</svg>
