<svg width="40" height="36" viewBox="0 0 40 36" fill="none" xmlns="http://www.w3.org/2000/svg">
<path fill-rule="evenodd" clip-rule="evenodd" d="M10.3334 17.5001C9.39057 17.5001 8.91916 17.5001 8.62627 17.793C8.33337 18.0859 8.33337 18.5573 8.33337 19.5001V29.5001C8.33337 30.4429 8.33337 30.9143 8.62627 31.2072C8.91916 31.5001 9.39057 31.5001 10.3334 31.5001H29.6667C30.6095 31.5001 31.0809 31.5001 31.3738 31.2072C31.6667 30.9143 31.6667 30.4429 31.6667 29.5001V19.5001C31.6667 18.5573 31.6667 18.0859 31.3738 17.793C31.0809 17.5001 30.6095 17.5001 29.6667 17.5001H29L28.972 17.5001C28.8361 17.5002 28.665 17.5003 28.5127 17.4837C28.3253 17.4633 28.0791 17.4111 27.8347 17.2481C27.7144 17.168 27.6188 17.0771 27.5418 16.9859C27.4627 16.8921 27.3043 16.8925 27.2237 16.9851C26.9244 17.3288 26.5442 17.4313 26.2778 17.4688C26.0539 17.5004 25.7896 17.5002 25.5619 17.5001L25.5182 17.5001H21.7041L21.6688 17.5001C21.4935 17.5002 21.28 17.5003 21.094 17.4768C20.8673 17.4481 20.5608 17.3726 20.2837 17.1313C20.1326 16.9998 19.8675 16.9998 19.7164 17.1313C19.4393 17.3726 19.1328 17.4481 18.9061 17.4768C18.7201 17.5003 18.5066 17.5002 18.3313 17.5001L18.296 17.5001H14.4819L14.4382 17.5001C14.2105 17.5002 13.9462 17.5004 13.7223 17.4688C13.4558 17.4313 13.0756 17.3288 12.7764 16.9851C12.6958 16.8925 12.5374 16.8921 12.4583 16.9859C12.3813 17.0772 12.2856 17.168 12.1654 17.2481C11.921 17.4111 11.6747 17.4633 11.4874 17.4837C11.3351 17.5003 11.164 17.5002 11.0281 17.5001L11 17.5001H10.3334ZM8.57795 15.1336C8.55564 15.1745 8.54448 15.1949 8.52305 15.392C8.48675 15.726 8.82512 16.2962 9.13566 16.4244C9.31893 16.5001 9.45873 16.5001 9.73834 16.5001H11C11.3232 16.5001 11.4848 16.5001 11.6107 16.4161C11.7367 16.3321 11.7988 16.183 11.9231 15.8847L12.6523 14.1346L13.5241 12.0424L13.5507 11.9785L13.5709 11.9301C13.6217 11.8081 13.482 11.6902 13.3709 11.7617L10.1703 13.8192C9.2718 14.3968 8.82253 14.6856 8.57795 15.1336ZM14.6271 10.9541C14.4614 11.0606 14.3786 11.1138 14.3245 11.1607C14.1594 11.3039 14.0794 11.429 14.0188 11.639C13.999 11.7078 13.9838 11.8167 13.9536 12.0345L13.9536 12.0345L13.9536 12.0345L13.9464 12.0865L13.9369 12.155L13.625 14.4001L13.4914 15.3625V15.3625C13.4178 15.892 13.3811 16.1567 13.5305 16.3284C13.68 16.5001 13.9473 16.5001 14.4819 16.5001H18.296C18.711 16.5001 18.9185 16.5001 19.0597 16.3772C19.2008 16.2542 19.2294 16.0487 19.2865 15.6376L19.4952 14.1346L19.7777 12.101L19.7941 11.9825L19.8019 11.9264C19.876 11.3934 19.913 11.127 20 11.127C20.0871 11.127 20.1241 11.3934 20.1981 11.9264L20.2059 11.9825L20.2224 12.101L20.5048 14.1346L20.7136 15.6376C20.7707 16.0487 20.7992 16.2542 20.9404 16.3772C21.0816 16.5001 21.2891 16.5001 21.7041 16.5001H25.5182C26.0528 16.5001 26.3201 16.5001 26.4696 16.3284C26.619 16.1567 26.5823 15.892 26.5087 15.3625L26.375 14.4001L26.0632 12.155L26.0537 12.0865L26.0465 12.0345C26.0162 11.8167 26.0011 11.7078 25.9813 11.639C25.9206 11.429 25.8407 11.304 25.6756 11.1608C25.6215 11.1138 25.5386 11.0606 25.373 10.9541L22.1631 8.89059C21.1127 8.21532 20.5874 7.87769 20 7.87769C19.4126 7.87769 18.8874 8.21532 17.837 8.89059L14.6271 10.9541ZM26.4292 11.9301C26.3784 11.8081 26.518 11.6902 26.6292 11.7617L29.8297 13.8192C30.7283 14.3968 31.1776 14.6856 31.4221 15.1336C31.4444 15.1745 31.4556 15.1949 31.477 15.392C31.5133 15.726 31.175 16.2962 30.8644 16.4244C30.6811 16.5001 30.5413 16.5001 30.2617 16.5001H29C28.6769 16.5001 28.5153 16.5001 28.3894 16.4161C28.2634 16.3321 28.2013 16.183 28.077 15.8847L27.3478 14.1346L26.476 12.0424L26.4494 11.9785L26.4292 11.9301Z" fill="#420505" fill-opacity="0.24"/>
<path d="M7.92647 5.96471C8.1222 5.26006 8.22007 4.90774 8.48829 4.70387C8.75651 4.5 9.12218 4.5 9.8535 4.5H30.1465C30.8778 4.5 31.2435 4.5 31.5117 4.70387C31.7799 4.90774 31.8778 5.26006 32.0735 5.96471L34.8239 15.8662C34.9047 16.1571 34.9452 16.3026 34.8701 16.4013C34.7951 16.5 34.6441 16.5 34.3422 16.5H29.0541C28.7062 16.5 28.5323 16.5 28.4014 16.4056C28.2704 16.3112 28.2154 16.1462 28.1054 15.8162L26.4303 10.791C26.2124 10.1371 26.1034 9.81014 26.0155 9.82944C25.9276 9.84874 25.9657 10.1913 26.0418 10.8763L26.5433 15.3896C26.6009 15.9078 26.6297 16.1669 26.4806 16.3335C26.3315 16.5 26.0708 16.5 25.5494 16.5H21.7284C21.3026 16.5 21.0898 16.5 20.9474 16.3726C20.805 16.2451 20.7815 16.0336 20.7345 15.6104L20.1988 10.789C20.1259 10.1334 20.0895 9.80554 20 9.80554C19.9105 9.80554 19.8741 10.1334 19.8012 10.789L19.2655 15.6104C19.2185 16.0336 19.195 16.2451 19.0526 16.3726C18.9102 16.5 18.6974 16.5 18.2716 16.5H14.4506C13.9292 16.5 13.6685 16.5 13.5194 16.3335C13.3703 16.1669 13.3991 15.9078 13.4567 15.3896L13.9582 10.8763C14.0343 10.1913 14.0724 9.84874 13.9845 9.82944C13.8966 9.81014 13.7876 10.1371 13.5697 10.791L11.8946 15.8162C11.7846 16.1462 11.7296 16.3112 11.5986 16.4056C11.4677 16.5 11.2938 16.5 10.9459 16.5H5.65782C5.35588 16.5 5.20491 16.5 5.12988 16.4013C5.05484 16.3026 5.09525 16.1571 5.17606 15.8662L7.92647 5.96471Z" fill="#420505"/>
<path d="M22.1667 22.5H17.8334C16.7288 22.5 15.8334 23.3954 15.8334 24.5V31.35C15.8334 31.4328 15.9005 31.5 15.9834 31.5H24.0167C24.0996 31.5 24.1667 31.4328 24.1667 31.35V24.5C24.1667 23.3954 23.2713 22.5 22.1667 22.5Z" fill="#420505"/>
</svg>
