<svg width="18" height="18" viewBox="0 0 18 18" fill="none" xmlns="http://www.w3.org/2000/svg">
<path d="M2.57143 1.71429C2.57143 0.767511 3.33894 0 4.28571 0H9.00009L9 4.07141C9 4.89985 9.67157 5.57145 10.5 5.57145H14.5714V7.86334C14.1587 7.76589 13.7283 7.71429 13.2857 7.71429C10.2087 7.71429 7.71429 10.2087 7.71429 13.2857C7.71429 13.7283 7.76589 14.1587 7.86334 14.5714H4.28571C3.33894 14.5714 2.57143 13.8039 2.57143 12.8571V1.71429ZM5.14286 3.21429C5.14286 3.56932 5.43068 3.85714 5.78571 3.85714H7.07143C7.42646 3.85714 7.71429 3.56932 7.71429 3.21429C7.71429 2.85925 7.42646 2.57143 7.07143 2.57143H5.78571C5.43068 2.57143 5.14286 2.85925 5.14286 3.21429ZM5.78571 5.14286C5.43068 5.14286 5.14286 5.43068 5.14286 5.78571C5.14286 6.14075 5.43068 6.42857 5.78571 6.42857H7.07143C7.42646 6.42857 7.71429 6.14075 7.71429 5.78571C7.71429 5.43068 7.42646 5.14286 7.07143 5.14286H5.78571ZM5.14286 8.35714C5.14286 8.71217 5.43068 9 5.78571 9H7.07143C7.42646 9 7.71429 8.71217 7.71429 8.35714C7.71429 8.00211 7.42646 7.71429 7.07143 7.71429H5.78571C5.43068 7.71429 5.14286 8.00211 5.14286 8.35714ZM9.26537 17.1429C8.89989 16.762 8.58806 16.3294 8.34189 15.8571H3.85714C2.43699 15.8571 1.28571 14.7059 1.28571 13.2857V11.7857C1.28571 11.4307 0.997894 11.1429 0.642857 11.1429C0.28782 11.1429 0 11.4307 0 11.7857V13.2857C0 15.416 1.7269 17.1429 3.85714 17.1429H9.26537ZM14.571 4.28573L10.2858 0.00136287L10.2857 4.07144C10.2857 4.18978 10.3816 4.28573 10.5 4.28573H14.571ZM18 13.2857C18 10.6821 15.8894 8.57143 13.2857 8.57143C10.6821 8.57143 8.57143 10.6821 8.57143 13.2857C8.57143 15.8894 10.6821 18 13.2857 18C15.8894 18 18 15.8894 18 13.2857ZM13.7148 13.7143L13.7152 15.8601C13.7152 16.0969 13.5234 16.2887 13.2867 16.2887C13.05 16.2887 12.8581 16.0969 12.8581 15.8601L12.8577 13.7143H10.7105C10.474 13.7143 10.2824 13.5225 10.2824 13.2857C10.2824 13.0491 10.474 12.8571 10.7105 12.8571H12.8576L12.8571 10.7137C12.8571 10.4769 13.0491 10.2851 13.2857 10.2851C13.5224 10.2851 13.7143 10.4769 13.7143 10.7137L13.7147 12.8571H15.8542C16.0907 12.8571 16.2824 13.0491 16.2824 13.2857C16.2824 13.5225 16.0907 13.7143 15.8542 13.7143H13.7148ZM9.00009 0L10.2844 2.57492e-05L9.00009 0Z" fill="#800F0F"/>
</svg>
