<svg width="32" height="32" viewBox="0 0 32 32" fill="none" xmlns="http://www.w3.org/2000/svg">
<path d="M26.6596 5.46257C26.554 3.90152 25.2543 2.66797 23.6666 2.66797H8.33337L8.12797 2.67489C6.56692 2.78044 5.33337 4.08014 5.33337 5.66797V26.332L5.34029 26.5375C5.44585 28.0985 6.74556 29.332 8.33337 29.332H18.4234L16.4251 27.332H8.33337L8.19768 27.3229C7.70957 27.2567 7.33337 26.8383 7.33337 26.332V5.66797L7.34251 5.53228C7.40872 5.04417 7.82711 4.66797 8.33337 4.66797H23.6666L23.8022 4.67709C24.2903 4.74332 24.6666 5.1617 24.6666 5.66797V21.0904L26.2116 19.5453C26.3535 19.4035 26.5059 19.2788 26.6666 19.1713V5.66797L26.6596 5.46257ZM21.7168 29.332C21.6999 29.3329 21.683 29.3333 21.666 29.3333C21.6492 29.3333 21.6324 29.3329 21.6158 29.332C21.3688 29.3196 21.1344 29.2159 20.9588 29.0401L17.6259 25.7044C17.2356 25.3137 17.2359 24.6805 17.6266 24.2901C18.0172 23.8997 18.6504 23.9 19.0408 24.2908L21.6666 26.9188L27.6259 20.9596C28.0163 20.5691 28.6495 20.5691 29.04 20.9596C29.4306 21.3501 29.4306 21.9832 29.04 22.3737L22.3734 29.0404C22.1978 29.216 21.9636 29.3196 21.7168 29.332ZM18.4551 22C18.374 21.9968 18.2927 21.9968 18.2116 22H14.9948C14.4426 22 13.9948 21.5523 13.9948 21C13.9948 20.4477 14.4426 20 14.9948 20H21.6666C22.219 20 22.6666 20.4477 22.6666 21C22.6666 21.5523 22.219 22 21.6666 22H18.4551ZM12 10.3355C12 11.0719 11.4031 11.6688 10.6667 11.6688C9.93033 11.6688 9.33337 11.0719 9.33337 10.3355C9.33337 9.5991 9.93033 9.00216 10.6667 9.00216C11.4031 9.00216 12 9.5991 12 10.3355ZM13.9948 10.3333C13.9948 9.78106 14.4426 9.33334 14.9948 9.33334H21.6666C22.219 9.33334 22.6666 9.78106 22.6666 10.3333C22.6666 10.8856 22.219 11.3333 21.6666 11.3333H14.9948C14.4426 11.3333 13.9948 10.8856 13.9948 10.3333ZM14.9948 14.6667C14.4426 14.6667 13.9948 15.1144 13.9948 15.6667C13.9948 16.2189 14.4426 16.6667 14.9948 16.6667H21.6666C22.219 16.6667 22.6666 16.2189 22.6666 15.6667C22.6666 15.1144 22.219 14.6667 21.6666 14.6667H14.9948ZM10.6667 17C11.4031 17 12 16.4031 12 15.6667C12 14.9303 11.4031 14.3333 10.6667 14.3333C9.93033 14.3333 9.33337 14.9303 9.33337 15.6667C9.33337 16.4031 9.93033 17 10.6667 17ZM12 20.9973C12 21.7337 11.4031 22.3307 10.6667 22.3307C9.93033 22.3307 9.33337 21.7337 9.33337 20.9973C9.33337 20.2609 9.93033 19.664 10.6667 19.664C11.4031 19.664 12 20.2609 12 20.9973Z" fill="#420505"/>
</svg>
