<svg width="50" height="46" viewBox="0 0 50 46" fill="none" xmlns="http://www.w3.org/2000/svg">
<path d="M10.1331 17.1687C10.205 16.2976 10.2409 15.862 10.528 15.5976C10.8151 15.3333 11.2522 15.3333 12.1263 15.3333H37.2396C38.1137 15.3333 38.5508 15.3333 38.8379 15.5976C39.125 15.862 39.1609 16.2976 39.2328 17.1687L40.4235 31.5917C40.7579 35.6433 40.9252 37.6691 39.7369 38.9595C38.5486 40.2499 36.5159 40.2499 32.4506 40.2499H16.9153C12.8499 40.2499 10.8173 40.2499 9.629 38.9595C8.44071 37.6691 8.60794 35.6433 8.94241 31.5917L10.1331 17.1687Z" fill="#420505" fill-opacity="0.24"/>
<path d="M17.4838 15.3333L17.4838 12.9491C17.4838 8.97311 20.7069 5.74992 24.683 5.74992V5.74992C28.659 5.74992 31.8821 8.97311 31.8821 12.9491L31.8821 15.3333" stroke="#420505" stroke-width="2"/>
<path d="M16.4838 22.0417C16.4838 22.594 16.9315 23.0417 17.4838 23.0417C18.036 23.0417 18.4838 22.594 18.4838 22.0417H16.4838ZM18.4838 22.0417V19.1667H16.4838V22.0417H18.4838Z" fill="#420505"/>
<path d="M30.8821 22.0417C30.8821 22.594 31.3298 23.0417 31.8821 23.0417C32.4344 23.0417 32.8821 22.594 32.8821 22.0417H30.8821ZM32.8821 22.0417V19.1667H30.8821V22.0417H32.8821Z" fill="#420505"/>
</svg>
