<svg width="17" height="17" viewBox="0 0 17 17" fill="none" xmlns="http://www.w3.org/2000/svg">
<path d="M6.8 2.90244H10.2C10.2 1.98645 9.43891 1.2439 8.5 1.2439C7.56109 1.2439 6.8 1.98645 6.8 2.90244ZM5.525 2.90244C5.525 1.29946 6.85695 0 8.5 0C10.1431 0 11.475 1.29946 11.475 2.90244H16.3625C16.7146 2.90244 17 3.1809 17 3.52439C17 3.86788 16.7146 4.14634 16.3625 4.14634H15.2413L14.2451 14.1898C14.087 15.7838 12.7139 17 11.0724 17H5.92764C4.28616 17 2.91308 15.7838 2.75496 14.1898L1.75872 4.14634H0.6375C0.285422 4.14634 0 3.86788 0 3.52439C0 3.1809 0.285422 2.90244 0.6375 2.90244H5.525ZM7.225 6.84146C7.225 6.49797 6.93957 6.21951 6.5875 6.21951C6.23542 6.21951 5.95 6.49797 5.95 6.84146V13.061C5.95 13.4045 6.23542 13.6829 6.5875 13.6829C6.93957 13.6829 7.225 13.4045 7.225 13.061V6.84146ZM10.4125 6.21951C10.0604 6.21951 9.775 6.49797 9.775 6.84146V13.061C9.775 13.4045 10.0604 13.6829 10.4125 13.6829C10.7646 13.6829 11.05 13.4045 11.05 13.061V6.84146C11.05 6.49797 10.7646 6.21951 10.4125 6.21951Z" fill="#800F0F"/>
</svg>
